<mxfile host="app.diagrams.net" modified="2024-03-17T12:53:11.774Z" agent="Mozilla/5.0 (Windows NT 10.0; Win64; x64) AppleWebKit/537.36 (KHTML, like Gecko) Chrome/121.0.0.0 Safari/537.36 OPR/107.0.0.0" etag="8w6Xyo3tzZtsAhHgXtCb" version="23.1.4" type="device">
  <diagram name="Страница — 1" id="XR3_SG0v8plIFhZEMZtE">
    <mxGraphModel dx="792" dy="685" grid="1" gridSize="10" guides="1" tooltips="1" connect="1" arrows="1" fold="1" page="1" pageScale="1" pageWidth="827" pageHeight="1169" math="0" shadow="0">
      <root>
        <mxCell id="0" />
        <mxCell id="1" parent="0" />
        <mxCell id="3TEvxjfY1rveTjC9T_u5-11" style="edgeStyle=orthogonalEdgeStyle;rounded=0;orthogonalLoop=1;jettySize=auto;html=1;exitX=0.5;exitY=1;exitDx=0;exitDy=0;entryX=0.5;entryY=0;entryDx=0;entryDy=0;" edge="1" parent="1" source="3TEvxjfY1rveTjC9T_u5-1" target="3TEvxjfY1rveTjC9T_u5-6">
          <mxGeometry relative="1" as="geometry" />
        </mxCell>
        <mxCell id="3TEvxjfY1rveTjC9T_u5-19" style="edgeStyle=orthogonalEdgeStyle;rounded=0;orthogonalLoop=1;jettySize=auto;html=1;exitX=1;exitY=0.5;exitDx=0;exitDy=0;entryX=1;entryY=0.5;entryDx=0;entryDy=0;" edge="1" parent="1" source="3TEvxjfY1rveTjC9T_u5-1" target="3TEvxjfY1rveTjC9T_u5-8">
          <mxGeometry relative="1" as="geometry">
            <Array as="points">
              <mxPoint x="640" y="255" />
              <mxPoint x="640" y="625" />
            </Array>
          </mxGeometry>
        </mxCell>
        <mxCell id="3TEvxjfY1rveTjC9T_u5-1" value="&lt;div style=&quot;color: rgb(204, 204, 204); background-color: rgb(31, 31, 31); font-family: Consolas, &amp;quot;Courier New&amp;quot;, monospace; font-size: 14px; line-height: 19px;&quot;&gt;i&lt;span style=&quot;color: #d4d4d4;&quot;&gt;&amp;lt;&lt;/span&gt;&lt;span style=&quot;color: #9cdcfe;&quot;&gt;arr&lt;/span&gt;&lt;span style=&quot;color: #d4d4d4;&quot;&gt;.&lt;/span&gt;&lt;span style=&quot;color: #9cdcfe;&quot;&gt;GetLength&lt;/span&gt;(&lt;span style=&quot;color: #b5cea8;&quot;&gt;0&lt;/span&gt;)&lt;/div&gt;" style="rhombus;whiteSpace=wrap;html=1;" vertex="1" parent="1">
          <mxGeometry x="331" y="190" width="166" height="130" as="geometry" />
        </mxCell>
        <mxCell id="3TEvxjfY1rveTjC9T_u5-9" style="edgeStyle=orthogonalEdgeStyle;rounded=0;orthogonalLoop=1;jettySize=auto;html=1;exitX=0.5;exitY=1;exitDx=0;exitDy=0;entryX=0.5;entryY=0;entryDx=0;entryDy=0;" edge="1" parent="1" source="3TEvxjfY1rveTjC9T_u5-2" target="3TEvxjfY1rveTjC9T_u5-4">
          <mxGeometry relative="1" as="geometry" />
        </mxCell>
        <mxCell id="3TEvxjfY1rveTjC9T_u5-2" value="Start" style="rounded=1;whiteSpace=wrap;html=1;" vertex="1" parent="1">
          <mxGeometry x="354" y="20" width="120" height="60" as="geometry" />
        </mxCell>
        <mxCell id="3TEvxjfY1rveTjC9T_u5-3" value="End" style="rounded=1;whiteSpace=wrap;html=1;" vertex="1" parent="1">
          <mxGeometry x="354" y="690" width="120" height="60" as="geometry" />
        </mxCell>
        <mxCell id="3TEvxjfY1rveTjC9T_u5-10" style="edgeStyle=orthogonalEdgeStyle;rounded=0;orthogonalLoop=1;jettySize=auto;html=1;exitX=0.5;exitY=1;exitDx=0;exitDy=0;entryX=0.5;entryY=0;entryDx=0;entryDy=0;" edge="1" parent="1" source="3TEvxjfY1rveTjC9T_u5-4" target="3TEvxjfY1rveTjC9T_u5-1">
          <mxGeometry relative="1" as="geometry" />
        </mxCell>
        <mxCell id="3TEvxjfY1rveTjC9T_u5-4" value="&lt;div style=&quot;color: rgb(204, 204, 204); background-color: rgb(31, 31, 31); font-family: Consolas, &amp;quot;Courier New&amp;quot;, monospace; font-size: 14px; line-height: 19px;&quot;&gt;arr &lt;span style=&quot;color: #d4d4d4;&quot;&gt;=&lt;/span&gt; {&lt;span style=&quot;color: #ce9178;&quot;&gt;&quot;1234&quot;&lt;/span&gt;, &lt;span style=&quot;color: #ce9178;&quot;&gt;&quot;1567&quot;&lt;/span&gt;, &lt;span style=&quot;color: #ce9178;&quot;&gt;&quot;-2&quot;&lt;/span&gt;, &lt;span style=&quot;color: #ce9178;&quot;&gt;&quot;computer science&quot;&lt;/span&gt;}&lt;/div&gt;&lt;div style=&quot;color: rgb(204, 204, 204); background-color: rgb(31, 31, 31); font-family: Consolas, &amp;quot;Courier New&amp;quot;, monospace; font-size: 14px; line-height: 19px;&quot;&gt;&lt;div style=&quot;line-height: 19px;&quot;&gt;arrnew &lt;span style=&quot;color: #d4d4d4;&quot;&gt;=&lt;/span&gt; &lt;span style=&quot;color: #569cd6;&quot;&gt;new&lt;/span&gt; &lt;span style=&quot;color: #569cd6;&quot;&gt;string&lt;/span&gt;[&lt;span style=&quot;color: #b5cea8;&quot;&gt;0&lt;/span&gt;]&lt;/div&gt;&lt;/div&gt;" style="rounded=0;whiteSpace=wrap;html=1;" vertex="1" parent="1">
          <mxGeometry x="219" y="100" width="390" height="60" as="geometry" />
        </mxCell>
        <mxCell id="3TEvxjfY1rveTjC9T_u5-13" style="edgeStyle=orthogonalEdgeStyle;rounded=0;orthogonalLoop=1;jettySize=auto;html=1;exitX=0.5;exitY=1;exitDx=0;exitDy=0;entryX=0.5;entryY=0;entryDx=0;entryDy=0;" edge="1" parent="1" source="3TEvxjfY1rveTjC9T_u5-6" target="3TEvxjfY1rveTjC9T_u5-7">
          <mxGeometry relative="1" as="geometry" />
        </mxCell>
        <mxCell id="3TEvxjfY1rveTjC9T_u5-17" style="edgeStyle=orthogonalEdgeStyle;rounded=0;orthogonalLoop=1;jettySize=auto;html=1;exitX=1;exitY=0.5;exitDx=0;exitDy=0;entryX=1;entryY=0.5;entryDx=0;entryDy=0;" edge="1" parent="1" source="3TEvxjfY1rveTjC9T_u5-6" target="3TEvxjfY1rveTjC9T_u5-14">
          <mxGeometry relative="1" as="geometry">
            <Array as="points">
              <mxPoint x="590" y="380" />
              <mxPoint x="590" y="550" />
            </Array>
          </mxGeometry>
        </mxCell>
        <mxCell id="3TEvxjfY1rveTjC9T_u5-6" value="&lt;div style=&quot;color: rgb(204, 204, 204); background-color: rgb(31, 31, 31); font-family: Consolas, &amp;quot;Courier New&amp;quot;, monospace; font-size: 14px; line-height: 19px;&quot;&gt;arr[&lt;span style=&quot;color: #9cdcfe;&quot;&gt;i&lt;/span&gt;]&lt;span style=&quot;color: #d4d4d4;&quot;&gt;.&lt;/span&gt;&lt;span style=&quot;color: #9cdcfe;&quot;&gt;Length&lt;/span&gt;&lt;span style=&quot;color: #d4d4d4;&quot;&gt;&amp;lt;&lt;/span&gt;&lt;span style=&quot;color: #b5cea8;&quot;&gt;4&lt;/span&gt;&lt;/div&gt;" style="rhombus;whiteSpace=wrap;html=1;" vertex="1" parent="1">
          <mxGeometry x="328.5" y="340" width="171" height="80" as="geometry" />
        </mxCell>
        <mxCell id="3TEvxjfY1rveTjC9T_u5-15" style="edgeStyle=orthogonalEdgeStyle;rounded=0;orthogonalLoop=1;jettySize=auto;html=1;exitX=0.5;exitY=1;exitDx=0;exitDy=0;entryX=0.5;entryY=0;entryDx=0;entryDy=0;" edge="1" parent="1" source="3TEvxjfY1rveTjC9T_u5-7" target="3TEvxjfY1rveTjC9T_u5-14">
          <mxGeometry relative="1" as="geometry" />
        </mxCell>
        <mxCell id="3TEvxjfY1rveTjC9T_u5-7" value="&lt;div style=&quot;color: rgb(204, 204, 204); background-color: rgb(31, 31, 31); font-family: Consolas, &amp;quot;Courier New&amp;quot;, monospace; font-size: 14px; line-height: 19px;&quot;&gt;arrnew&lt;span style=&quot;color: #d4d4d4;&quot;&gt;=&lt;/span&gt;&lt;span style=&quot;color: #9cdcfe;&quot;&gt;arrnew&lt;/span&gt;&lt;span style=&quot;color: #d4d4d4;&quot;&gt;.&lt;/span&gt;&lt;span style=&quot;color: #9cdcfe;&quot;&gt;Append&lt;/span&gt;(&lt;span style=&quot;color: #9cdcfe;&quot;&gt;arr&lt;/span&gt;[&lt;span style=&quot;color: #9cdcfe;&quot;&gt;i&lt;/span&gt;])&lt;span style=&quot;color: #d4d4d4;&quot;&gt;.&lt;/span&gt;&lt;span style=&quot;color: #9cdcfe;&quot;&gt;ToArray&lt;/span&gt;()&lt;/div&gt;" style="rounded=0;whiteSpace=wrap;html=1;" vertex="1" parent="1">
          <mxGeometry x="259" y="450" width="310" height="60" as="geometry" />
        </mxCell>
        <mxCell id="3TEvxjfY1rveTjC9T_u5-20" style="edgeStyle=orthogonalEdgeStyle;rounded=0;orthogonalLoop=1;jettySize=auto;html=1;entryX=0.5;entryY=0;entryDx=0;entryDy=0;" edge="1" parent="1" source="3TEvxjfY1rveTjC9T_u5-8" target="3TEvxjfY1rveTjC9T_u5-3">
          <mxGeometry relative="1" as="geometry" />
        </mxCell>
        <mxCell id="3TEvxjfY1rveTjC9T_u5-8" value="&lt;div style=&quot;color: rgb(204, 204, 204); background-color: rgb(31, 31, 31); font-family: Consolas, &amp;quot;Courier New&amp;quot;, monospace; font-size: 14px; line-height: 19px;&quot;&gt;print(arrnew)&lt;/div&gt;" style="shape=document;whiteSpace=wrap;html=1;boundedLbl=1;" vertex="1" parent="1">
          <mxGeometry x="354" y="585" width="120" height="80" as="geometry" />
        </mxCell>
        <mxCell id="3TEvxjfY1rveTjC9T_u5-16" style="edgeStyle=orthogonalEdgeStyle;rounded=0;orthogonalLoop=1;jettySize=auto;html=1;entryX=0;entryY=0.5;entryDx=0;entryDy=0;" edge="1" parent="1" source="3TEvxjfY1rveTjC9T_u5-14" target="3TEvxjfY1rveTjC9T_u5-1">
          <mxGeometry relative="1" as="geometry">
            <Array as="points">
              <mxPoint x="230" y="550" />
              <mxPoint x="230" y="255" />
            </Array>
          </mxGeometry>
        </mxCell>
        <mxCell id="3TEvxjfY1rveTjC9T_u5-14" value="&lt;div style=&quot;color: rgb(204, 204, 204); background-color: rgb(31, 31, 31); font-family: Consolas, &amp;quot;Courier New&amp;quot;, monospace; font-size: 14px; line-height: 19px;&quot;&gt;i=i&lt;span style=&quot;color: #d4d4d4;&quot;&gt;+1&lt;/span&gt;&lt;/div&gt;" style="rounded=0;whiteSpace=wrap;html=1;" vertex="1" parent="1">
          <mxGeometry x="361" y="530" width="106" height="40" as="geometry" />
        </mxCell>
        <mxCell id="3TEvxjfY1rveTjC9T_u5-21" value="YES" style="text;html=1;align=center;verticalAlign=middle;resizable=0;points=[];autosize=1;strokeColor=none;fillColor=none;" vertex="1" parent="1">
          <mxGeometry x="331" y="310" width="50" height="30" as="geometry" />
        </mxCell>
        <mxCell id="3TEvxjfY1rveTjC9T_u5-22" value="YES" style="text;html=1;align=center;verticalAlign=middle;resizable=0;points=[];autosize=1;strokeColor=none;fillColor=none;" vertex="1" parent="1">
          <mxGeometry x="331" y="410" width="50" height="30" as="geometry" />
        </mxCell>
        <mxCell id="3TEvxjfY1rveTjC9T_u5-23" value="NO" style="text;html=1;align=center;verticalAlign=middle;resizable=0;points=[];autosize=1;strokeColor=none;fillColor=none;" vertex="1" parent="1">
          <mxGeometry x="520" y="220" width="40" height="30" as="geometry" />
        </mxCell>
        <mxCell id="3TEvxjfY1rveTjC9T_u5-24" value="NO" style="text;html=1;align=center;verticalAlign=middle;resizable=0;points=[];autosize=1;strokeColor=none;fillColor=none;" vertex="1" parent="1">
          <mxGeometry x="520" y="340" width="40" height="30" as="geometry" />
        </mxCell>
      </root>
    </mxGraphModel>
  </diagram>
</mxfile>
